<?xml version="1.0" encoding="UTF-8"?>
<svg version="1.1" xmlns="http://www.w3.org/2000/svg" width="1024" height="1024">
<path d="M0 0 C337.92 0 675.84 0 1024 0 C1024 337.92 1024 675.84 1024 1024 C686.08 1024 348.16 1024 0 1024 C0 686.08 0 348.16 0 0 Z " fill="#FDFEFE" transform="translate(0,0)"/>
<path d="M0 0 C1.362483 -0.00927008 2.72496088 -0.01932123 4.08743286 -0.03009033 C7.77358799 -0.05620903 11.45967049 -0.06920252 15.14590359 -0.07811165 C17.45381822 -0.08399361 19.76171344 -0.09220694 22.06961823 -0.10112 C29.30498236 -0.12843477 36.54030159 -0.14778566 43.77571368 -0.15552378 C52.10147394 -0.16447946 60.42657656 -0.19956278 68.75213695 -0.25752497 C75.20591321 -0.30088205 81.65950526 -0.32093882 88.11342549 -0.32360601 C91.95981416 -0.3256932 95.8055832 -0.33731464 99.65181732 -0.37324524 C103.27353386 -0.40642371 106.89417218 -0.41041626 110.5159874 -0.39296722 C112.46169695 -0.39071457 114.40737247 -0.41798341 116.35287476 -0.44647217 C126.07933155 -0.35489359 133.33641487 2.48179982 140.69238281 8.89257812 C146.8968585 15.3334148 152.27498637 22.09420723 157.52832031 29.32226562 C162.85503039 36.57463888 167.80063627 41.83868288 175.66162109 46.26269531 C177.872554 47.51765853 180.05753681 48.81279066 182.24316406 50.11132812 C185.9653728 52.32192758 189.69204356 54.52464639 193.42285156 56.72070312 C221.32843281 73.16659727 221.32843281 73.16659727 234.15332031 81.38476562 C234.80921143 81.80129395 235.46510254 82.21782227 236.14086914 82.64697266 C242.94282698 87.06401352 248.49794993 91.64810046 252.96582031 98.50976562 C253.36921631 99.12779053 253.7726123 99.74581543 254.18823242 100.38256836 C259.25876424 108.27037203 263.9529654 116.39704061 268.70483398 124.47924805 C272.77170714 131.39250848 276.91064952 138.22086599 281.31738281 144.92382812 C283.08861992 147.61947602 284.7941784 150.35154477 286.48925781 153.09570312 C287.27478027 154.36124023 287.27478027 154.36124023 288.07617188 155.65234375 C289.09156139 157.29079891 290.1017541 158.93249197 291.10546875 160.578125 C295.42519321 167.5191703 300.36112447 173.80808676 306.71582031 179.00976562 C315.21994296 186.22838136 315.21994296 186.22838136 315.76660156 191.71289062 C315.79109375 192.65648437 315.81558594 193.60007812 315.84082031 194.57226562 C315.87820313 195.50554687 315.91558594 196.43882812 315.95410156 197.40039062 C315.1034261 203.2380534 311.45022997 206.71150045 306.91186523 210.20043945 C306.33154541 210.63251709 305.75122559 211.06459473 305.15332031 211.50976562 C303.89147928 212.47575174 302.62976392 213.44190205 301.36816406 214.40820312 C300.72733887 214.89385742 300.08651367 215.37951172 299.42626953 215.87988281 C296.50060306 218.10329901 293.60619358 220.36575381 290.71582031 222.63476562 C289.86564331 223.30100952 289.86564331 223.30100952 288.99829102 223.98071289 C282.05081644 229.44901661 275.25386923 235.10105718 268.44384766 240.73876953 C264.15387253 244.28513439 259.83882725 247.80091303 255.52832031 251.32226562 C252.77530793 253.57437174 250.02264962 255.8269082 247.27050781 258.08007812 C245.4650762 259.55631423 243.6578289 261.03033298 241.84863281 262.50195312 C236.18880427 267.11184246 230.58712778 271.78339369 225.03076172 276.51708984 C223.53408853 277.79036496 222.03132596 279.05647174 220.52832031 280.32226562 C219.61824219 281.08925781 218.70816406 281.85625 217.77050781 282.64648438 C215.52832031 284.32226562 215.52832031 284.32226562 213.52832031 284.32226562 C213.53200748 285.3171037 213.53569466 286.31194178 213.53949356 287.33692646 C213.62837419 311.56686855 213.69406243 335.79678944 213.735569 360.02686024 C213.75617586 371.74444696 213.78426067 383.46192585 213.83007812 395.17944336 C213.87000323 405.3949183 213.89576676 415.61031513 213.90467429 425.82586592 C213.9098794 431.23268569 213.92207435 436.63928203 213.95124054 442.04603004 C213.97849921 447.14070269 213.9867442 452.235061 213.98075104 457.32979965 C213.98184661 459.19415053 213.98973792 461.05851251 214.00514221 462.92280006 C214.10770269 475.98154512 213.32348531 486.7858878 204.58300781 497.25195312 C195.71227641 506.19014256 185.78907992 510.40291833 173.343234 510.47465742 C172.38546468 510.47515517 171.42769535 510.47565293 170.44090271 510.47616577 C169.41604218 510.48054803 168.39118165 510.48493028 167.33526474 510.48944533 C163.89627813 510.50281479 160.45731714 510.50900806 157.01831055 510.51513672 C154.55431503 510.52303916 152.09032067 510.5313082 149.62632751 510.53991699 C142.22896165 510.56385854 134.83160003 510.57906221 127.43420872 510.59197706 C125.34326857 510.59569184 123.25232908 510.59966483 121.16138959 510.60372972 C108.16401631 510.62896879 95.1666419 510.65101174 82.16924953 510.66345787 C79.16092869 510.66638734 76.15260787 510.66934903 73.14428711 510.67236328 C72.39662742 510.67310933 71.64896773 510.67385538 70.87865169 510.67462404 C58.77520032 510.68726954 46.67189612 510.72048422 34.56851351 510.76216511 C22.1291198 510.80465036 9.68980132 510.82816047 -2.74966472 510.83337843 C-9.72866795 510.83678506 -16.70744117 510.84845138 -23.68637276 510.88148117 C-30.25522555 510.91252012 -36.8237513 510.91786167 -43.39269066 510.90609741 C-45.79844277 510.90587695 -48.20421363 510.91415901 -50.60990143 510.93175125 C-66.26143398 511.03994109 -79.48331521 510.7150958 -91.47167969 499.32226562 C-102.33503475 487.72278999 -103.0383547 476.56807642 -102.85888672 461.42944336 C-102.85124037 459.52141972 -102.84550882 457.61338761 -102.84153748 455.70535278 C-102.82981408 451.61238168 -102.80635221 447.51970781 -102.77414322 443.42684746 C-102.7249886 436.95039302 -102.71291324 430.47419374 -102.70773315 423.99757385 C-102.68794347 405.58642196 -102.62851378 387.17567939 -102.50976562 368.76489258 C-102.44442064 358.58441653 -102.41488346 348.40447309 -102.42444313 338.22378498 C-102.42846027 331.78930055 -102.38846135 325.35708768 -102.31575322 318.92303646 C-102.28106083 314.9169479 -102.28833069 310.91174212 -102.30737495 306.90558243 C-102.30785482 305.05322201 -102.29128509 303.20076367 -102.25608253 301.34873772 C-101.84080707 291.26370616 -101.84080707 291.26370616 -105.64629745 282.27211189 C-108.1468997 279.98769237 -110.62117057 278.14059513 -113.47167969 276.32226562 C-114.71138993 275.34592328 -115.94333212 274.35941848 -117.15917969 273.35351562 C-118.26117698 272.50693423 -119.36532958 271.66315059 -120.47167969 270.82226562 C-125.56492205 266.88902787 -130.39149743 262.77265129 -135.13574219 258.41992188 C-138.18102441 255.6852788 -141.36035355 253.15296448 -144.57324219 250.61914062 C-148.23267532 247.71921248 -151.85148014 244.77092235 -155.47167969 241.82226562 C-163.61486584 235.20100383 -171.78392885 228.62358023 -180.07324219 222.18554688 C-181.66543655 220.94861412 -183.25659248 219.71034348 -184.84667969 218.47070312 C-188.11893427 215.92010739 -191.3903335 213.37222683 -194.71386719 210.88867188 C-200.74150261 206.30087221 -204.8328754 202.71404508 -205.97167969 194.88476562 C-204.83295184 186.77132968 -200.64154635 182.13548469 -194.53417969 177.07226562 C-186.21884502 169.7698788 -180.67409444 161.25221311 -174.99853516 151.83496094 C-172.80889915 148.23154971 -170.53127379 144.68598442 -168.26171875 141.13256836 C-165.26134499 136.42207977 -162.30579356 131.68373612 -159.34667969 126.94726562 C-158.70069824 125.91794922 -158.0547168 124.88863281 -157.38916016 123.828125 C-154.18145879 118.70773261 -151.00926435 113.5726543 -147.92480469 108.37695312 C-147.36293457 107.44028809 -146.80106445 106.50362305 -146.22216797 105.53857422 C-145.17654193 103.79125741 -144.14264163 102.0368415 -143.12353516 100.27392578 C-137.36120803 90.69837916 -129.24844271 84.79102473 -119.78417969 79.13476562 C-118.42667603 78.30912109 -118.42667603 78.30912109 -117.04174805 77.46679688 C-114.19223516 75.73967068 -111.33384544 74.02833132 -108.47167969 72.32226562 C-107.1055957 71.50701416 -107.1055957 71.50701416 -105.71191406 70.67529297 C-98.32970333 66.27904095 -90.91977659 61.93030135 -83.5078125 57.58447266 C-80.55703351 55.85332975 -77.60808723 54.1190939 -74.65917969 52.38476562 C-73.77045166 51.86527344 -72.88172363 51.34578125 -71.96606445 50.81054688 C-58.88907575 43.11776323 -50.41179108 35.51961364 -41.53027344 23.15820312 C-29.59976377 6.72262435 -20.32493189 0.03587466 0 0 Z " fill="#FDFEFE" transform="translate(464.4716796875,265.677734375)"/>
<path d="M0 0 C1.362483 -0.00927008 2.72496088 -0.01932123 4.08743286 -0.03009033 C7.77358799 -0.05620903 11.45967049 -0.06920252 15.14590359 -0.07811165 C17.45381822 -0.08399361 19.76171344 -0.09220694 22.06961823 -0.10112 C29.30498236 -0.12843477 36.54030159 -0.14778566 43.77571368 -0.15552378 C52.10147394 -0.16447946 60.42657656 -0.19956278 68.75213695 -0.25752497 C75.20591321 -0.30088205 81.65950526 -0.32093882 88.11342549 -0.32360601 C91.95981416 -0.3256932 95.8055832 -0.33731464 99.65181732 -0.37324524 C103.27353386 -0.40642371 106.89417218 -0.41041626 110.5159874 -0.39296722 C112.46169695 -0.39071457 114.40737247 -0.41798341 116.35287476 -0.44647217 C126.07933155 -0.35489359 133.33641487 2.48179982 140.69238281 8.89257812 C146.8968585 15.3334148 152.27498637 22.09420723 157.52832031 29.32226562 C162.85503039 36.57463888 167.80063627 41.83868288 175.66162109 46.26269531 C177.872554 47.51765853 180.05753681 48.81279066 182.24316406 50.11132812 C185.9653728 52.32192758 189.69204356 54.52464639 193.42285156 56.72070312 C221.32843281 73.16659727 221.32843281 73.16659727 234.15332031 81.38476562 C234.80921143 81.80129395 235.46510254 82.21782227 236.14086914 82.64697266 C242.94282698 87.06401352 248.49794993 91.64810046 252.96582031 98.50976562 C253.36921631 99.12779053 253.7726123 99.74581543 254.18823242 100.38256836 C259.25876424 108.27037203 263.9529654 116.39704061 268.70483398 124.47924805 C272.77170714 131.39250848 276.91064952 138.22086599 281.31738281 144.92382812 C283.08861992 147.61947602 284.7941784 150.35154477 286.48925781 153.09570312 C287.27478027 154.36124023 287.27478027 154.36124023 288.07617188 155.65234375 C289.09156139 157.29079891 290.1017541 158.93249197 291.10546875 160.578125 C295.42519321 167.5191703 300.36112447 173.80808676 306.71582031 179.00976562 C315.21994296 186.22838136 315.21994296 186.22838136 315.76660156 191.71289062 C315.79109375 192.65648437 315.81558594 193.60007812 315.84082031 194.57226562 C315.87820313 195.50554687 315.91558594 196.43882812 315.95410156 197.40039062 C315.1034261 203.2380534 311.45022997 206.71150045 306.91186523 210.20043945 C306.33154541 210.63251709 305.75122559 211.06459473 305.15332031 211.50976562 C303.89147928 212.47575174 302.62976392 213.44190205 301.36816406 214.40820312 C300.72733887 214.89385742 300.08651367 215.37951172 299.42626953 215.87988281 C296.50060306 218.10329901 293.60619358 220.36575381 290.71582031 222.63476562 C289.86564331 223.30100952 289.86564331 223.30100952 288.99829102 223.98071289 C282.05081644 229.44901661 275.25386923 235.10105718 268.44384766 240.73876953 C264.15387253 244.28513439 259.83882725 247.80091303 255.52832031 251.32226562 C252.77530793 253.57437174 250.02264962 255.8269082 247.27050781 258.08007812 C245.4650762 259.55631423 243.6578289 261.03033298 241.84863281 262.50195312 C236.18880427 267.11184246 230.58712778 271.78339369 225.03076172 276.51708984 C223.53408853 277.79036496 222.03132596 279.05647174 220.52832031 280.32226562 C219.61824219 281.08925781 218.70816406 281.85625 217.77050781 282.64648438 C215.52832031 284.32226562 215.52832031 284.32226562 213.52832031 284.32226562 C213.53200748 285.3171037 213.53569466 286.31194178 213.53949356 287.33692646 C213.62837419 311.56686855 213.69406243 335.79678944 213.735569 360.02686024 C213.75617586 371.74444696 213.78426067 383.46192585 213.83007812 395.17944336 C213.87000323 405.3949183 213.89576676 415.61031513 213.90467429 425.82586592 C213.9098794 431.23268569 213.92207435 436.63928203 213.95124054 442.04603004 C213.97849921 447.14070269 213.9867442 452.235061 213.98075104 457.32979965 C213.98184661 459.19415053 213.98973792 461.05851251 214.00514221 462.92280006 C214.10770269 475.98154512 213.32348531 486.7858878 204.58300781 497.25195312 C195.71227641 506.19014256 185.78907992 510.40291833 173.343234 510.47465742 C172.38546468 510.47515517 171.42769535 510.47565293 170.44090271 510.47616577 C169.41604218 510.48054803 168.39118165 510.48493028 167.33526474 510.48944533 C163.89627813 510.50281479 160.45731714 510.50900806 157.01831055 510.51513672 C154.55431503 510.52303916 152.09032067 510.5313082 149.62632751 510.53991699 C142.22896165 510.56385854 134.83160003 510.57906221 127.43420872 510.59197706 C125.34326857 510.59569184 123.25232908 510.59966483 121.16138959 510.60372972 C108.16401631 510.62896879 95.1666419 510.65101174 82.16924953 510.66345787 C79.16092869 510.66638734 76.15260787 510.66934903 73.14428711 510.67236328 C72.39662742 510.67310933 71.64896773 510.67385538 70.87865169 510.67462404 C58.77520032 510.68726954 46.67189612 510.72048422 34.56851351 510.76216511 C22.1291198 510.80465036 9.68980132 510.82816047 -2.74966472 510.83337843 C-9.72866795 510.83678506 -16.70744117 510.84845138 -23.68637276 510.88148117 C-30.25522555 510.91252012 -36.8237513 510.91786167 -43.39269066 510.90609741 C-45.79844277 510.90587695 -48.20421363 510.91415901 -50.60990143 510.93175125 C-66.26143398 511.03994109 -79.48331521 510.7150958 -91.47167969 499.32226562 C-102.33503475 487.72278999 -103.0383547 476.56807642 -102.85888672 461.42944336 C-102.85124037 459.52141972 -102.84550882 457.61338761 -102.84153748 455.70535278 C-102.82981408 451.61238168 -102.80635221 447.51970781 -102.77414322 443.42684746 C-102.7249886 436.95039302 -102.71291324 430.47419374 -102.70773315 423.99757385 C-102.68794347 405.58642196 -102.62851378 387.17567939 -102.50976562 368.76489258 C-102.44442064 358.58441653 -102.41488346 348.40447309 -102.42444313 338.22378498 C-102.42846027 331.78930055 -102.38846135 325.35708768 -102.31575322 318.92303646 C-102.28106083 314.9169479 -102.28833069 310.91174212 -102.30737495 306.90558243 C-102.30785482 305.05322201 -102.29128509 303.20076367 -102.25608253 301.34873772 C-101.84080707 291.26370616 -101.84080707 291.26370616 -105.64629745 282.27211189 C-108.1468997 279.98769237 -110.62117057 278.14059513 -113.47167969 276.32226562 C-114.71138993 275.34592328 -115.94333212 274.35941848 -117.15917969 273.35351562 C-118.26117698 272.50693423 -119.36532958 271.66315059 -120.47167969 270.82226562 C-125.56492205 266.88902787 -130.39149743 262.77265129 -135.13574219 258.41992188 C-138.18102441 255.6852788 -141.36035355 253.15296448 -144.57324219 250.61914062 C-148.23267532 247.71921248 -151.85148014 244.77092235 -155.47167969 241.82226562 C-163.61486584 235.20100383 -171.78392885 228.62358023 -180.07324219 222.18554688 C-181.66543655 220.94861412 -183.25659248 219.71034348 -184.84667969 218.47070312 C-188.11893427 215.92010739 -191.3903335 213.37222683 -194.71386719 210.88867188 C-200.74150261 206.30087221 -204.8328754 202.71404508 -205.97167969 194.88476562 C-204.83295184 186.77132968 -200.64154635 182.13548469 -194.53417969 177.07226562 C-186.21884502 169.7698788 -180.67409444 161.25221311 -174.99853516 151.83496094 C-172.80889915 148.23154971 -170.53127379 144.68598442 -168.26171875 141.13256836 C-165.26134499 136.42207977 -162.30579356 131.68373612 -159.34667969 126.94726562 C-158.70069824 125.91794922 -158.0547168 124.88863281 -157.38916016 123.828125 C-154.18145879 118.70773261 -151.00926435 113.5726543 -147.92480469 108.37695312 C-147.36293457 107.44028809 -146.80106445 106.50362305 -146.22216797 105.53857422 C-145.17654193 103.79125741 -144.14264163 102.0368415 -143.12353516 100.27392578 C-137.36120803 90.69837916 -129.24844271 84.79102473 -119.78417969 79.13476562 C-118.42667603 78.30912109 -118.42667603 78.30912109 -117.04174805 77.46679688 C-114.19223516 75.73967068 -111.33384544 74.02833132 -108.47167969 72.32226562 C-107.1055957 71.50701416 -107.1055957 71.50701416 -105.71191406 70.67529297 C-98.32970333 66.27904095 -90.91977659 61.93030135 -83.5078125 57.58447266 C-80.55703351 55.85332975 -77.60808723 54.1190939 -74.65917969 52.38476562 C-73.77045166 51.86527344 -72.88172363 51.34578125 -71.96606445 50.81054688 C-58.88907575 43.11776323 -50.41179108 35.51961364 -41.53027344 23.15820312 C-29.59976377 6.72262435 -20.32493189 0.03587466 0 0 Z M160.52832031 67.32226562 C156.93119153 75.79233313 153.57731819 84.33363571 150.34082031 92.94726562 C149.61624369 94.86599268 148.89064301 96.78433053 148.16499329 98.70265198 C147.42859767 100.64943291 146.69277347 102.59642908 145.95703125 104.54345703 C142.19731974 114.48934929 138.41364904 124.42464751 134.52832031 134.32226562 C133.87186523 135.99482422 133.87186523 135.99482422 133.20214844 137.70117188 C131.88978024 141.01923486 130.55673497 144.32814909 129.21582031 147.63476562 C128.81935303 148.63741455 128.42288574 149.64006348 128.0144043 150.6730957 C125.60729277 156.52573018 123.43649982 161.36817587 117.52832031 164.32226562 C114.35737119 165.04666349 111.70122348 165.06599026 108.52832031 164.32226562 C104.7523566 161.75065397 101.68879876 158.60508518 98.52832031 155.32226562 C97.09118445 153.90522956 95.65371193 152.48853481 94.21582031 151.07226562 C92.98556871 149.82333341 91.75645238 148.57328214 90.52832031 147.32226562 C89.76777344 146.56171875 89.00722656 145.80117188 88.22363281 145.01757812 C86.22930542 143.02325073 84.24172014 141.02316963 82.25878906 139.01757812 C73.98044723 130.63244592 73.98044723 130.63244592 65.19238281 122.79101562 C63.44048644 121.24474089 61.95204213 119.56954152 60.40332031 117.82226562 C57.79929862 114.986629 57.79929862 114.986629 54.63769531 115.41044617 C51.0186328 116.47173071 49.52598385 117.72881138 46.90332031 120.41137695 C46.04222656 121.27930374 45.18113281 122.14723053 44.29394531 123.04145813 C43.38128906 123.98619492 42.46863281 124.9309317 41.52832031 125.90429688 C40.56603049 126.88101094 39.60246698 127.85647161 38.63769531 128.83073425 C36.10400371 131.39478748 33.58481854 133.97259883 31.06933594 136.55450439 C27.04724864 140.67902365 23.00569555 144.78438032 18.95996094 148.88568687 C17.55560664 150.31404418 16.15906612 151.75007052 14.76269531 153.18623352 C4.55012674 163.59199574 4.55012674 163.59199574 -0.81542969 164.88867188 C-1.52699219 164.88738281 -2.23855469 164.88609375 -2.97167969 164.88476562 C-3.68324219 164.90667969 -4.39480469 164.92859375 -5.12792969 164.95117188 C-8.78690549 163.9693467 -11.11300158 162.19668856 -13.47167969 159.32226562 C-15.55436777 155.47727364 -17.09962198 151.46528811 -18.65917969 147.38476562 C-19.36083252 145.60839722 -19.36083252 145.60839722 -20.07666016 143.79614258 C-24.05935187 133.67025165 -27.77423439 123.44088386 -31.47070312 113.20776367 C-34.61133107 104.54616505 -37.98285969 96.01187574 -41.53051758 87.51000977 C-44.1530937 81.19828274 -46.49609358 74.87071188 -48.47167969 68.32226562 C-53.14791614 67.85313386 -55.62563904 69.27533348 -59.55761719 71.72460938 C-60.41887459 72.2543763 -60.41887459 72.2543763 -61.29753113 72.79484558 C-63.15375442 73.93967187 -65.00006347 75.09952004 -66.84667969 76.25976562 C-68.1206408 77.04914045 -69.39530148 77.83738737 -70.6706543 78.62451172 C-73.16400195 80.16454349 -75.654257 81.70937752 -78.14208984 83.25830078 C-82.08022443 85.69949376 -86.04901532 88.08400196 -90.03417969 90.44726562 C-108.93277888 101.26446991 -108.93277888 101.26446991 -122.65136719 117.65429688 C-123.24393311 118.68901123 -123.83649902 119.72372559 -124.44702148 120.78979492 C-125.07390869 121.89363525 -125.7007959 122.99747559 -126.34667969 124.13476562 C-127.34328351 125.87664083 -128.33989937 127.61850934 -129.33738708 129.35987854 C-130.02109868 130.55364819 -130.7043323 131.74769171 -131.38710022 132.94200134 C-134.93991308 139.15336592 -138.54655997 145.3330247 -142.15917969 151.50976562 C-144.61899628 155.71601372 -144.61899628 155.71601372 -147.06689453 159.92919922 C-147.95093415 161.43517008 -148.85491696 162.92978138 -149.78662109 164.40673828 C-151.89745556 167.62075078 -151.89745556 167.62075078 -152.29174805 171.32055664 C-151.2576986 173.84457314 -150.06582699 174.78700466 -147.89355469 176.42382812 C-146.78052979 177.27497192 -146.78052979 177.27497192 -145.64501953 178.14331055 C-144.84531738 178.73861572 -144.04561523 179.3339209 -143.22167969 179.94726562 C-142.4026416 180.56899658 -141.58360352 181.19072754 -140.73974609 181.83129883 C-139.08516932 183.08704779 -137.42780059 184.33912708 -135.76757812 185.58740234 C-133.8120062 187.0651027 -131.87431522 188.56039666 -129.94824219 190.07617188 C-121.70921147 196.54080177 -113.14804751 202.46376822 -104.47167969 208.32226562 C-103.81167969 207.99226562 -103.15167969 207.66226563 -102.47167969 207.32226562 C-102.14167969 176.96226562 -101.81167969 146.60226562 -101.47167969 115.32226562 C-93.78668528 117.24351423 -88.95152234 122.20266315 -84.85449219 128.81835938 C-80.46064322 136.77445313 -77.3510338 143.82133953 -77.34139442 152.99639034 C-77.33777008 154.13474895 -77.33414573 155.27310757 -77.33041155 156.44596189 C-77.33147981 157.69186316 -77.33254806 158.93776443 -77.33364868 160.22142029 C-77.33122973 161.56202037 -77.32836718 162.90261972 -77.32509935 164.243218 C-77.31735323 167.92585287 -77.31572731 171.6084691 -77.31504822 175.29111111 C-77.31320728 179.26323266 -77.30559979 183.23534334 -77.29856873 187.2074585 C-77.2870465 194.0903707 -77.27880048 200.97328046 -77.27244949 207.85619926 C-77.26212239 218.73366282 -77.24155923 229.61109584 -77.21932983 240.48854065 C-77.21185033 244.20993318 -77.20443659 247.93132584 -77.19704247 251.65271854 C-77.1951919 252.5827069 -77.19334133 253.51269526 -77.19143469 254.47086508 C-77.17051027 265.05552493 -77.15167995 275.64018814 -77.13378906 286.22485352 C-77.13215088 287.19240195 -77.1305127 288.15995038 -77.12882487 289.15681846 C-77.10252807 304.84346861 -77.08389048 320.53012112 -77.06719716 336.21678399 C-77.04978397 352.31967571 -77.02094841 368.42252115 -76.98230779 384.5253759 C-76.95889695 394.45945066 -76.94491225 404.39345 -76.94298016 414.32755256 C-76.94087274 421.13307313 -76.92795997 427.93851862 -76.90650083 434.74400549 C-76.89445962 438.67181923 -76.8873286 442.5994839 -76.89321327 446.52731514 C-76.89850386 450.12291967 -76.89004893 453.71821994 -76.87065689 457.31377364 C-76.86390803 459.23078197 -76.87191113 461.14782469 -76.88043463 463.06482595 C-76.86899957 472.22766094 -76.86899957 472.22766094 -72.06656235 479.76125282 C-67.19265061 483.86819861 -62.65874576 484.028018 -56.48301697 483.94372559 C-55.49304972 483.95011441 -54.50308247 483.95650323 -53.48311621 483.96308565 C-50.17412076 483.97831593 -46.86632635 483.95788645 -43.55737305 483.9375 C-41.18186548 483.94100174 -38.80636025 483.94666091 -36.43086243 483.95431519 C-30.65376844 483.96708509 -24.8770597 483.9566315 -19.09999841 483.93520194 C-12.36957554 483.91115498 -5.63923275 483.91290855 1.09122353 483.91550785 C13.10100916 483.91919555 25.11062913 483.89839325 37.12036133 483.86425781 C48.76916693 483.83116063 60.41779872 483.81700105 72.06665039 483.82324219 C84.75863026 483.83000878 97.4505374 483.82753892 110.14250654 483.80788279 C111.1495332 483.80632356 111.1495332 483.80632356 112.17690383 483.80473283 C113.52519569 483.80264197 114.87348753 483.800531 116.22177934 483.79839966 C120.91135353 483.79150947 125.60090528 483.79083384 130.29048347 483.7922821 C136.60326942 483.79316048 142.91584746 483.77895718 149.22857857 483.75305557 C151.54652397 483.74588834 153.86449148 483.74381281 156.18244553 483.74717331 C159.34407029 483.7508829 162.50508659 483.73615803 165.66664124 483.7166748 C167.04567764 483.72466669 167.04567764 483.72466669 168.45257336 483.73282003 C174.69386516 483.66636766 178.92269253 482.56600066 183.77832031 478.38476562 C187.00880994 474.57740285 187.77830186 471.75592026 187.77886009 466.77512455 C187.78385879 465.63959048 187.78885749 464.50405642 187.79400766 463.33411223 C187.78701284 461.46221689 187.78701284 461.46221689 187.77987671 459.55250549 C187.78201495 458.2136317 187.78504013 456.87475909 187.78887713 455.53588909 C187.79692902 451.85307754 187.79260466 448.17036733 187.78635836 444.4875561 C187.78183044 440.51664434 187.78886191 436.54575208 187.79466248 432.57484436 C187.8033028 425.69083017 187.80510175 418.80684168 187.8027153 411.92282295 C187.79961894 401.95548988 187.81125284 391.98821365 187.8272651 382.02089488 C187.85324233 365.8313992 187.87325159 349.64190347 187.88671875 333.45239258 C187.88752912 332.4831242 187.88833949 331.51385583 187.88917442 330.51521569 C187.90038421 316.77493928 187.90567419 303.03466692 187.90856154 289.29438656 C187.90876553 288.3278469 187.90896952 287.36130725 187.90917969 286.36547852 C187.90937962 285.40011909 187.90957956 284.43475967 187.90978555 283.44014693 C187.91352297 267.32255991 187.93264153 251.20503434 187.96427405 235.0874781 C187.98316004 225.15115444 187.98916774 215.21498863 187.97845687 205.278652 C187.97212132 198.46184842 187.98022453 191.64515766 187.99951099 184.8283788 C188.01015824 180.89965644 188.01440401 176.97120832 188.00103951 173.0424881 C187.988901 169.43777522 187.99547804 165.83357405 188.01623149 162.22890496 C188.0225033 160.32397055 188.00930215 158.4190018 187.99514616 156.51410967 C188.11128784 143.33551887 191.48050629 131.63157098 200.73925781 122.02929688 C204.87647742 118.1463582 206.78246649 116.47143639 212.52832031 115.32226562 C212.85832031 146.01226562 213.18832031 176.70226562 213.52832031 208.32226562 C217.28709688 206.818755 219.48600591 205.82483395 222.57519531 203.52148438 C223.32937744 202.96283691 224.08355957 202.40418945 224.8605957 201.82861328 C225.65844482 201.22839355 226.45629395 200.62817383 227.27832031 200.00976562 C228.11161865 199.3889209 228.94491699 198.76807617 229.8034668 198.12841797 C232.38433382 196.200765 234.9577532 194.26362812 237.52832031 192.32226562 C238.3154541 191.72784668 239.10258789 191.13342773 239.91357422 190.52099609 C248.2126421 184.23875562 256.45248684 177.89008105 264.52832031 171.32226562 C262.73794913 166.21138044 259.97890636 161.67792771 257.27832031 157.00976562 C256.75471924 156.09984863 256.23111816 155.18993164 255.69165039 154.25244141 C253.97472794 151.27327658 252.25195162 148.2975534 250.52832031 145.32226562 C249.92745605 144.28247559 249.3265918 143.24268555 248.70751953 142.17138672 C246.880373 139.01134965 245.04898932 135.85381231 243.21582031 132.69726562 C242.65411133 131.72748779 242.09240234 130.75770996 241.51367188 129.75854492 C239.86877165 126.93605666 238.20309845 124.12711488 236.52832031 121.32226562 C235.67294678 119.86481934 235.67294678 119.86481934 234.80029297 118.37792969 C229.04801494 108.88643053 222.41107042 103.987339 213.02832031 98.32226562 C211.66767456 97.49021606 211.66767456 97.49021606 210.27954102 96.64135742 C207.36630199 94.86194375 204.44770508 93.09157517 201.52832031 91.32226562 C198.56780998 89.52176412 195.60799734 87.72011939 192.64819336 85.91845703 C190.70387444 84.73577499 188.75873283 83.55444431 186.81274414 82.37451172 C182.38488081 79.68688487 177.9696077 76.98379891 173.59082031 74.21679688 C172.84550049 73.74588623 172.10018066 73.27497559 171.33227539 72.78979492 C169.95967528 71.91911457 168.58955502 71.04450763 167.22241211 70.1652832 C164.12108676 68.01818829 164.12108676 68.01818829 160.52832031 67.32226562 Z " fill="#2B373C" transform="translate(464.4716796875,265.677734375)"/>
<path d="M0 0 C5.88904116 4.1989792 11.16603996 8.80312839 16.375 13.8125 C17.87027338 15.23653898 19.36636261 16.65972182 20.86328125 18.08203125 C21.9318335 19.09837646 21.9318335 19.09837646 23.02197266 20.13525391 C25.49756155 22.46906629 28.0190067 24.74043153 30.5625 27 C33.46256456 29.57783516 36.23230857 32.21875901 38.9375 35 C43.61418575 39.75257517 48.80150198 43.8380366 54 48 C56.00806583 49.6573288 58.00423222 51.32787024 60 53 C58.58261511 56.25207092 56.87473588 58.31361067 54.3125 60.75 C50.98801615 63.99077382 47.89199675 67.33510124 44.859375 70.84765625 C42.69538332 73.35261301 40.5108175 75.8375968 38.3125 78.3125 C37.58675781 79.13363281 36.86101562 79.95476562 36.11328125 80.80078125 C34.183615 82.80891821 32.24167936 84.36481343 30 86 C21.47055726 63.40295931 12.95262292 40.80812254 5 18 C4.70351563 17.15050781 4.40703125 16.30101562 4.1015625 15.42578125 C0 3.609375 0 3.609375 0 0 Z " fill="#FBFCFC" transform="translate(436,311)"/>
<path d="M0 0 C-2.34456059 8.21906684 -5.13001862 16.26440803 -8 24.3125 C-8.23721771 24.97975098 -8.47443542 25.64700195 -8.71884155 26.33447266 C-15.73132648 46.04101203 -23.07574091 65.64073413 -31 85 C-34.36974515 82.26178751 -37.51391862 79.64621063 -40.3125 76.3125 C-42.99736836 73.16533642 -45.72443603 70.0677286 -48.5 67 C-52.37699282 62.70405255 -56.20502898 58.36848754 -60 54 C-58.43425423 49.7685225 -55.26118398 47.45157111 -51.875 44.6875 C-46.38212278 40.09621327 -41.07711759 35.35575204 -35.875 30.4375 C-35.19953125 29.79989746 -34.5240625 29.16229492 -33.828125 28.50537109 C-32.50221518 27.25301587 -31.17668361 26.00026004 -29.8515625 24.74707031 C-22.82591918 18.11791635 -15.66951048 11.64406037 -8.375 5.3125 C-7.77026855 4.78245361 -7.16553711 4.25240723 -6.54248047 3.70629883 C-2.23397742 0 -2.23397742 0 0 0 Z " fill="#FBFCFC" transform="translate(604,312)"/>
<path d="M0 0 C1.69184166 -0.01407143 1.69184166 -0.01407143 3.41786194 -0.02842712 C5.2305381 -0.01157616 5.2305381 -0.01157616 7.07983398 0.00561523 C8.32844711 0.00416 9.57706024 0.00270477 10.86351013 0.00120544 C13.50087782 0.0028643 16.13679859 0.01233171 18.77392578 0.03515625 C22.14900668 0.06357048 25.52318351 0.06079255 28.89833164 0.04806614 C32.12555719 0.03942951 35.35263673 0.05455662 38.57983398 0.06811523 C40.39554649 0.06371178 40.39554649 0.06371178 42.24794006 0.05921936 C43.93505348 0.07824562 43.93505348 0.07824562 45.65625 0.09765625 C46.64488541 0.10305923 47.63352081 0.10846222 48.65211487 0.11402893 C51.69932306 0.56642276 53.08267646 1.34785102 55.26342773 3.50170898 C55.79467773 6.49780273 55.79467773 6.49780273 55.76342773 9.93920898 C55.77889648 11.63883789 55.77889648 11.63883789 55.79467773 13.37280273 C55.14907614 17.17520623 54.24929358 18.13364917 51.26342773 20.50170898 C48.65211487 21.01637268 48.65211487 21.01637268 45.65625 21.03515625 C44.53150772 21.05099258 43.40676544 21.06682892 42.24794006 21.08314514 C41.03746506 21.07818527 39.82699005 21.0732254 38.57983398 21.06811523 C36.70834938 21.0774131 36.70834938 21.0774131 34.79905701 21.0868988 C32.15990286 21.09400453 29.52227141 21.09275422 26.88330078 21.078125 C23.50905808 21.06094682 20.13651985 21.08441941 16.76246738 21.1196146 C13.53490294 21.14691608 10.30748131 21.13685011 7.07983398 21.13061523 C5.26715782 21.15050255 5.26715782 21.15050255 3.41786194 21.17079163 C-5.90361633 21.06721178 -5.90361633 21.06721178 -8.99609375 18.13452148 C-10.97609217 15.13938851 -11.4112029 13.50765145 -11.36157227 9.93920898 C-11.37446289 9.00979492 -11.38735352 8.08038086 -11.40063477 7.12280273 C-9.96250877 1.44643485 -5.37300295 0.00090236 0 0 Z " fill="#2F3A40" transform="translate(572.736572265625,468.498291015625)"/>
<path d="M0 0 C3.7229703 2.6592645 6.55543557 5.73587115 8.625 9.875 C9.43579191 16.28158525 8.60490673 21.68871927 4.625 26.875 C0.5627305 30.81301184 -3.38061977 32.20049213 -9 32.4375 C-13.84079028 32.1964648 -16.70298197 31.18877237 -20.375 27.875 C-25.01112454 22.73767281 -25.89536423 18.52615669 -25.859375 11.7421875 C-25.03823138 6.88154703 -22.11824436 3.91067988 -18.375 0.875 C-12.91511497 -2.56270539 -5.91968507 -1.97322836 0 0 Z " fill="#2F393E" transform="translate(528.375,676.125)"/>
<path d="M0 0 C4.15422393 2.79958569 7.61888159 6.42526317 9.875 10.9375 C10.41249296 15.83661617 10.44174874 19.7822045 8.25 24.25 C3.78903941 29.29792909 0.10433726 32.66838856 -6.875 33.25 C-12.18983777 33.16223204 -15.89325174 31.1461811 -19.63671875 27.44140625 C-23.82082413 22.63388116 -24.5509865 18.68517386 -24.4609375 12.5078125 C-23.91351779 8.31941518 -22.21333694 5.75663565 -19.125 2.9375 C-13.03228733 -1.44041934 -7.18605738 -2.44325951 0 0 Z " fill="#2F3B3E" transform="translate(527.125,474.0625)"/>
<path d="M0 0 C4.74923998 2.77552986 8.30124985 6.05953094 10.79296875 11.04296875 C11.65130153 16.95320306 10.8793002 21.36272795 7.40234375 26.24609375 C4.04586883 29.99361429 0.48319158 32.52772268 -4.51171875 33.484375 C-9.8691456 33.76397135 -13.07187236 32.61424234 -17.20703125 29.04296875 C-21.72675906 24.24152349 -23.59272147 21.05654282 -23.4765625 14.48828125 C-22.93287933 9.55573539 -21.11661747 5.81892704 -17.4765625 2.43359375 C-11.99150619 -1.46397121 -6.31202692 -2.73707362 0 0 Z " fill="#2E3B40" transform="translate(526.20703125,406.95703125)"/>
<path d="M0 0 C4.56846147 2.31921895 7.95326516 5.56229687 10.03515625 10.28125 C11.06073341 15.8877385 10.29665525 20.54681596 7.03515625 25.28125 C2.64252624 29.70503342 -0.86953637 32.38347653 -7.27734375 32.59375 C-11.92691261 32.52592809 -14.38824703 31.37012899 -17.96484375 28.28125 C-22.73781094 23.32719462 -24.33443718 19.36494387 -24.24609375 12.5625 C-23.66390319 7.84028767 -20.86930821 5.09526802 -17.46484375 2.03125 C-11.5046482 -2.14088688 -6.89571467 -2.52248807 0 0 Z " fill="#2E3A3D" transform="translate(526.96484375,608.71875)"/>
<path d="M0 0 C4.5067886 2.32801001 7.89184848 5.7198072 9.89453125 10.3515625 C10.94531603 15.58840046 10.4677564 20.026488 7.89453125 24.7265625 C4.47002517 29.47854566 0.37474693 31.71271172 -5.33984375 32.76171875 C-11.40651237 33.16964992 -15.47269154 31.15589014 -20.10546875 27.3515625 C-24.13752499 23.0593736 -24.46152182 18.29204012 -24.38671875 12.59765625 C-23.7906145 7.83710151 -20.9417698 5.08830391 -17.48046875 2.0390625 C-12.33369758 -1.61785386 -6.04101182 -1.86049715 0 0 Z " fill="#2D3B3D" transform="translate(527.10546875,541.6484375)"/>
<path d="M0 0 C1.31070465 0.00303635 1.31070465 0.00303635 2.64788818 0.00613403 C3.56326355 0.00438171 4.47863892 0.00262939 5.42175293 0.00082397 C8.46329617 -0.00359604 11.5047818 -0.00065603 14.54632568 0.00271606 C16.65000418 0.00204307 18.75368261 0.00107308 20.85736084 -0.00018311 C25.27257017 -0.00166028 29.68775932 0.00049511 34.10296631 0.00515747 C39.77625129 0.01085477 45.44948897 0.00757587 51.12277222 0.00158501 C55.46861124 -0.00202007 59.81443896 -0.00088226 64.16027832 0.0017128 C66.25276698 0.00238222 68.34525666 0.00155314 70.43774414 -0.00076675 C73.35677834 -0.00329241 76.27573481 0.00054609 79.19476318 0.00613403 C80.06856628 0.0041098 80.94236938 0.00208557 81.84265137 0 C87.80706333 0.02126621 87.80706333 0.02126621 88.92132568 1.13552856 C89.19751749 3.75935071 89.31566925 5.48082162 87.93363953 7.77532959 C84.71256892 9.95257294 81.23167776 9.55170393 77.4743042 9.52371216 C76.61222351 9.52896912 75.75014282 9.53422607 74.86193848 9.53964233 C72.0078528 9.55286252 69.15432344 9.54409637 66.30023193 9.53396606 C64.31869906 9.53598641 62.33716692 9.53889751 60.3556366 9.54266357 C56.20029632 9.54708982 52.04514937 9.54064687 47.88983154 9.52664185 C42.56202816 9.50956099 37.2346785 9.51938235 31.90689182 9.53735924 C27.81396566 9.54819845 23.7211471 9.54474989 19.6282177 9.53697586 C17.66380701 9.53497366 15.69938657 9.53743383 13.73498726 9.54441452 C10.98897551 9.55202995 8.24369869 9.540423 5.4977417 9.52371216 C4.27805946 9.5328212 4.27805946 9.5328212 3.03373718 9.54211426 C-0.26211257 9.50494052 -2.66733452 9.35786321 -5.59516907 7.77532959 C-7.07867432 6.13552856 -7.07867432 6.13552856 -7.39117432 3.51052856 C-6.78026112 -1.13241172 -4.11999163 0.0146899 0 0 Z " fill="#F1F3F3" transform="translate(479.07867431640625,292.8644714355469)"/>
<path d="M0 0 C4.37907177 0.77527135 6.81800686 3.53652397 10.01171875 6.5 C11.35678724 7.70846379 12.70314079 8.9154988 14.05078125 10.12109375 C14.70079102 10.70745605 15.35080078 11.29381836 16.02050781 11.89794922 C18.24427286 13.87309083 20.54448942 15.72995845 22.88671875 17.5625 C26.98581203 20.78712005 30.94172622 24.15313096 34.88671875 27.5625 C39.36868528 31.43203876 43.89607432 35.1878765 48.6015625 38.78515625 C51.29110847 40.86021896 53.93572943 42.98539947 56.57421875 45.125 C57.4559375 45.83914063 58.33765625 46.55328125 59.24609375 47.2890625 C66.65362727 53.64158367 66.65362727 53.64158367 67.3125 56.95703125 C67.25449219 57.73433594 67.19648438 58.51164063 67.13671875 59.3125 C67.09160156 60.10269531 67.04648437 60.89289062 67 61.70703125 C66.94199219 62.29871094 66.88398438 62.89039063 66.82421875 63.5 C62.422339 62.03270675 59.13611348 59.63558561 55.57421875 56.75 C54.67219727 56.03070313 54.67219727 56.03070313 53.75195312 55.296875 C48.16826665 50.82536306 42.65846996 46.26250482 37.15014648 41.69873047 C32.69955279 38.01801546 28.19907479 34.4158945 23.63671875 30.875 C16.49340683 25.32022947 9.64261211 19.44647605 2.82421875 13.5 C1.94765625 12.736875 1.07109375 11.97375 0.16796875 11.1875 C-1.61682275 9.62894968 -3.3987175 8.06734815 -5.17578125 6.5 C-4.46429254 2.94255647 -3.83441965 0.88115927 0 0 Z " fill="#F6F7F8" transform="translate(294.17578125,455.5)"/>
<path d="M0 0 C2.32421875 0.8515625 2.32421875 0.8515625 4.32421875 2.8515625 C4.13357714 5.7640611 3.74883164 7.3679813 1.80883789 9.57739258 C0.84385376 10.34152466 0.84385376 10.34152466 -0.140625 11.12109375 C-0.85307373 11.69561279 -1.56552246 12.27013184 -2.29956055 12.86206055 C-3.06308838 13.45672119 -3.82661621 14.05138184 -4.61328125 14.6640625 C-5.78080933 15.59762573 -5.78080933 15.59762573 -6.97192383 16.55004883 C-9.19846153 18.32770837 -11.43649982 20.09000857 -13.67578125 21.8515625 C-15.40597742 23.24611952 -17.13537861 24.64166473 -18.86328125 26.0390625 C-21.50889778 28.14484834 -24.1652701 30.23640816 -26.828125 32.3203125 C-27.9857198 33.22650794 -29.14327054 34.13275965 -30.30078125 35.0390625 C-30.88738525 35.49804932 -31.47398926 35.95703613 -32.07836914 36.42993164 C-36.69872505 40.05652905 -41.25430282 43.75799888 -45.80078125 47.4765625 C-50.66384744 51.44380071 -55.55060541 55.37045418 -60.55078125 59.1640625 C-61.49695313 59.88207031 -62.443125 60.60007812 -63.41796875 61.33984375 C-65.67578125 62.8515625 -65.67578125 62.8515625 -67.67578125 62.8515625 C-68.86644823 54.5210935 -68.86644823 54.5210935 -66.24316406 50.84277344 C-64.1823117 48.97957981 -62.05951494 47.34408749 -59.80078125 45.7265625 C-59.02009277 45.1281958 -58.2394043 44.5298291 -57.43505859 43.91333008 C-55.88941497 42.73092393 -54.33442019 41.56062366 -52.76953125 40.40380859 C-50.2235986 38.51632727 -47.75931466 36.53861646 -45.30078125 34.5390625 C-44.5325 33.92804688 -43.76421875 33.31703125 -42.97265625 32.6875 C-39.55491598 29.95563277 -36.17609035 27.17688682 -32.79296875 24.40234375 C-30.46926842 22.49843322 -28.14013221 20.60133499 -25.80859375 18.70703125 C-25.13175537 18.15700439 -24.45491699 17.60697754 -23.75756836 17.0402832 C-22.37453892 15.91838633 -20.98994432 14.79841607 -19.60375977 13.68041992 C-16.48622401 11.16170757 -13.39436851 8.62934715 -10.3828125 5.984375 C-9.42761719 5.15679687 -8.47242188 4.32921875 -7.48828125 3.4765625 C-6.66972656 2.74695313 -5.85117187 2.01734375 -5.0078125 1.265625 C-2.67578125 -0.1484375 -2.67578125 -0.1484375 0 0 Z " fill="#F6F8F9" transform="translate(746.67578125,456.1484375)"/>
<path d="M0 0 C0.66209473 -0.00095673 1.32418945 -0.00191345 2.00634766 -0.00289917 C3.40852961 -0.00358076 4.8107147 -0.00172792 6.21289062 0.00244141 C8.36595713 0.00779004 10.51881502 0.0024958 12.671875 -0.00390625 C14.03125046 -0.00324546 15.3906258 -0.00196429 16.75 0 C18.61785156 0.00169189 18.61785156 0.00169189 20.5234375 0.00341797 C23.375 0.1328125 23.375 0.1328125 24.375 1.1328125 C24.6610077 3.84988565 24.82390987 5.49330882 23.22436523 7.77197266 C20.62398443 9.68544098 18.74234993 9.52089547 15.53515625 9.53125 C14.38982422 9.53511719 13.24449219 9.53898437 12.06445312 9.54296875 C10.86755859 9.53136719 9.67066406 9.51976562 8.4375 9.5078125 C7.24447266 9.51941406 6.05144531 9.53101563 4.82226562 9.54296875 C3.67564453 9.53910156 2.52902344 9.53523438 1.34765625 9.53125 C0.29843994 9.52786621 -0.75077637 9.52448242 -1.83178711 9.52099609 C-4.94637164 9.08815024 -6.32305756 8.22021101 -8.625 6.1328125 C-7.46001163 -0.35783697 -6.57645652 0.00595694 0 0 Z " fill="#F3F5F6" transform="translate(511.625,327.8671875)"/>
<path d="M0 0 C0.66 0.33 1.32 0.66 2 1 C0.90081184 1.98475214 -0.2045602 2.96260473 -1.3125 3.9375 C-1.92738281 4.48277344 -2.54226563 5.02804687 -3.17578125 5.58984375 C-5 7 -5 7 -8 8 C-8.66 7.34 -9.32 6.68 -10 6 C-8.3811004 4.96951963 -6.75467511 3.95085322 -5.125 2.9375 C-4.22007812 2.36902344 -3.31515625 1.80054688 -2.3828125 1.21484375 C-1.20332031 0.61349609 -1.20332031 0.61349609 0 0 Z " fill="#394247" transform="translate(366,332)"/>
<path d="M0 0 C0 3 0 3 -1.1875 4.625 C-3.41406801 6.31412056 -5.25851328 6.62952882 -8 7 C-5.42215154 4.35247996 -3.08351902 2.05567935 0 0 Z " fill="#3D484A" transform="translate(338,349)"/>
<path d="M0 0 C1.32 0.33 2.64 0.66 4 1 C3.01 2.32 2.02 3.64 1 5 C-0.32 4.67 -1.64 4.34 -3 4 C-2.01 2.68 -1.02 1.36 0 0 Z " fill="#3C4548" transform="translate(424,287)"/>
<path d="M0 0 C0.99 0.33 1.98 0.66 3 1 C0.03 3.475 0.03 3.475 -3 6 C-3.66 5.67 -4.32 5.34 -5 5 C-3.35 3.35 -1.7 1.7 0 0 Z " fill="#41494C" transform="translate(490,371)"/>
</svg>
